<svg width="1440" height="373" viewBox="0 0 1440 373" fill="none" xmlns="http://www.w3.org/2000/svg">
<path d="M0 78.2633H180.8V100.413H360V63.4967H540.8V0H720V32.4867H900.8V95.9834H1080V119.61H1260.8V1.47667H1440V66.45V379.503H1260.8H1080H900.8H720H540.8H360H180.8H0V78.2633Z" fill="#4FACF7"/>
<path d="M0 184.583H180.8V153.573H360V126.993H540.8V171.293H720V191.967H900.8V109.273H1080V181.63H1260.8V118.133H1440V174.247V379.503H1260.8H1080H900.8H720H540.8H360H180.8H0V184.583Z" fill="#3B87D2"/>
<path d="M0 230.36H180.8V202.303H360V217.07H540.8V183.107H720V253.987H900.8V189.013H1080V248.08H1260.8V249.557H1440V246.603V379.503H1260.8H1080H900.8H720H540.8H360H180.8H0V230.36Z" fill="#2863AC"/>
<path d="M0 293.857H180.8V324.867H360V299.763H540.8V268.753H720V318.96H900.8V321.913H1080V290.903H1260.8V302.717H1440V271.707V379.503H1260.8H1080H900.8H720H540.8H360H180.8H0V293.857Z" fill="#144287"/>
</svg>
