<svg id="visual" viewBox="0 0 900 600" width="900" height="600" xmlns="http://www.w3.org/2000/svg" xmlns:xlink="http://www.w3.org/1999/xlink" version="1.1"><rect x="0" y="0" width="900" height="600" fill="#313C87"></rect><path d="M0 397L113 397L113 412L225 412L225 387L338 387L338 344L450 344L450 366L563 366L563 409L675 409L675 425L788 425L788 345L900 345L900 389L900 601L900 601L788 601L788 601L675 601L675 601L563 601L563 601L450 601L450 601L338 601L338 601L225 601L225 601L113 601L113 601L0 601Z" fill="#4facf7"></path><path d="M0 469L113 469L113 448L225 448L225 430L338 430L338 460L450 460L450 474L563 474L563 418L675 418L675 467L788 467L788 424L900 424L900 462L900 601L900 601L788 601L788 601L675 601L675 601L563 601L563 601L450 601L450 601L338 601L338 601L225 601L225 601L113 601L113 601L0 601Z" fill="#3b87d2"></path><path d="M0 500L113 500L113 481L225 481L225 491L338 491L338 468L450 468L450 516L563 516L563 472L675 472L675 512L788 512L788 513L900 513L900 511L900 601L900 601L788 601L788 601L675 601L675 601L563 601L563 601L450 601L450 601L338 601L338 601L225 601L225 601L113 601L113 601L0 601Z" fill="#2863ac"></path><path d="M0 543L113 543L113 564L225 564L225 547L338 547L338 526L450 526L450 560L563 560L563 562L675 562L675 541L788 541L788 549L900 549L900 528L900 601L900 601L788 601L788 601L675 601L675 601L563 601L563 601L450 601L450 601L338 601L338 601L225 601L225 601L113 601L113 601L0 601Z" fill="#144287"></path></svg>